<?xml version="1.0" encoding="UTF-8" standalone="no"?><!DOCTYPE svg PUBLIC "-//W3C//DTD SVG 1.1//EN" "http://www.w3.org/Graphics/SVG/1.1/DTD/svg11.dtd"><svg width="100%" height="100%" viewBox="0 0 250 156" version="1.1" xmlns="http://www.w3.org/2000/svg" xmlns:xlink="http://www.w3.org/1999/xlink" xml:space="preserve" xmlns:serif="http://www.serif.com/" style="fill-rule:evenodd;clip-rule:evenodd;stroke-linejoin:round;stroke-miterlimit:2;"><path d="M21.046,78.346c4.061,-3.885 10.021,-12.685 23.495,-12.562c10.027,0.092 17.243,6.609 24.072,13.008c3.657,3.426 7.197,6.85 10.914,9.444c3.97,2.771 8.151,4.606 12.838,4.691c4.171,0.076 7.921,-1.954 11.373,-5.399c4.661,-4.651 8.832,-11.965 13.104,-19.317c3.417,-5.88 6.907,-11.782 10.849,-16.213c3.621,-4.07 7.587,-6.904 12.345,-6.929c4.225,-0.023 7.551,2.509 10.497,6.395c4.952,6.53 8.743,16.776 12.888,27.027c3.575,8.843 7.4,17.691 12.307,24.36c5.203,7.071 11.627,11.73 20.084,11.824c10.853,0.122 18.452,-6.216 23.77,-14.94c7.57,-12.416 10.442,-29.712 12.035,-38.264c0.195,-1.042 -0.494,-2.045 -1.535,-2.239c-1.042,-0.194 -2.045,0.494 -2.24,1.536c-1.538,8.257 -4.23,24.981 -11.538,36.969c-4.601,7.545 -11.061,13.204 -20.449,13.099c-7.216,-0.081 -12.595,-4.227 -17.034,-10.261c-4.735,-6.435 -8.39,-14.991 -11.84,-23.523c-4.285,-10.598 -8.269,-21.158 -13.388,-27.908c-3.768,-4.968 -8.175,-7.945 -13.578,-7.915c-4.696,0.025 -8.841,2.124 -12.587,5.558c-5.182,4.748 -9.621,12.121 -13.906,19.495c-4.09,7.038 -8.034,14.075 -12.497,18.528c-2.631,2.626 -5.411,4.335 -8.591,4.278c-3.92,-0.072 -7.388,-1.683 -10.71,-4.001c-3.575,-2.495 -6.968,-5.802 -10.486,-9.098c-7.521,-7.047 -15.618,-13.944 -26.662,-14.045c-14.928,-0.136 -21.685,9.323 -26.184,13.628c-0.766,0.732 -0.793,1.949 -0.061,2.714c0.733,0.766 1.949,0.793 2.715,0.06Z"/><circle cx="188.253" cy="91.454" r="4.31"/><circle cx="205.547" cy="91.454" r="4.31"/></svg>